# xmcd CD database file generated by OrangeCD 6.3
#
# Track frame offsets:
#	150
#	8433
#	16850
#	30851
#	41749
#	53540
#	62148
#	72821
#	84982
#	94899
#	103905
#	117066
#	126594
#	141369
#
# Disc length: 2013 seconds
#
# Revision: 4
# Processed by: cddbd v1.5.2PL0 Copyright (c) Steve Scherf et al.
# Submitted via: OrangeCD 6.3
#
DISCID=af07db0e
DTITLE=Bob Saxton - The Guitarstyles of
DYEAR=1999
DGENRE=Country
TTITLE0=Deed I Do
TTITLE1=Back In Baby's Arms
TTITLE2=City Of New Orleans
TTITLE3=Embraceable You
TTITLE4=Stand By Your Man
TTITLE5=Hindhustan
TTITLE6=I've Got Your Love...
TTITLE7=Can't Help Falling In Love
TTITLE8=Moonglow
TTITLE9=Sitting On Top Of The World
TTITLE10=You Don't Know Me
TTITLE11=Blue Bell
TTITLE12=Sails
TTITLE13=Auf Wiedersehen
EXTD=
EXTT0=
EXTT1=
EXTT2=
EXTT3=
EXTT4=
EXTT5=
EXTT6=
EXTT7=
EXTT8=
EXTT9=
EXTT10=
EXTT11=
EXTT12=
EXTT13=
PLAYORDER=
